<svg width="48" height="48" viewBox="0 0 48 48" fill="none" xmlns="http://www.w3.org/2000/svg">
<path d="M36 6C34.4087 6 32.8826 6.63214 31.7574 7.75736C30.6321 8.88258 30 10.4087 30 12V36C30 37.5913 30.6321 39.1174 31.7574 40.2426C32.8826 41.3679 34.4087 42 36 42C37.5913 42 39.1174 41.3679 40.2426 40.2426C41.3679 39.1174 42 37.5913 42 36C42 34.4087 41.3679 32.8826 40.2426 31.7574C39.1174 30.6321 37.5913 30 36 30H12C10.4087 30 8.88258 30.6321 7.75736 31.7574C6.63214 32.8826 6 34.4087 6 36C6 37.5913 6.63214 39.1174 7.75736 40.2426C8.88258 41.3679 10.4087 42 12 42C13.5913 42 15.1174 41.3679 16.2426 40.2426C17.3679 39.1174 18 37.5913 18 36V12C18 10.4087 17.3679 8.88258 16.2426 7.75736C15.1174 6.63214 13.5913 6 12 6C10.4087 6 8.88258 6.63214 7.75736 7.75736C6.63214 8.88258 6 10.4087 6 12C6 13.5913 6.63214 15.1174 7.75736 16.2426C8.88258 17.3679 10.4087 18 12 18H36C37.5913 18 39.1174 17.3679 40.2426 16.2426C41.3679 15.1174 42 13.5913 42 12C42 10.4087 41.3679 8.88258 40.2426 7.75736C39.1174 6.63214 37.5913 6 36 6Z" stroke="#0100A4" stroke-width="2" stroke-linecap="round" stroke-linejoin="round"/>
</svg>
